<svg xmlns="http://www.w3.org/2000/svg" width="34" height="34" viewBox="0 0 34 34">
    <g transform="translate(-1140 -192)">
        <circle data-name="타원 18" cx="17" cy="17" r="17" transform="translate(1140 192)" style="fill:#fff"/>
        <path data-name="패스 172" d="M11.6 9.66 7.938 6 11.6 2.327A1.372 1.372 0 0 0 11.591.4l-.014-.009a1.362 1.362 0 0 0-1.914 0L6 4.064 2.337.4A1.37 1.37 0 0 0 .4 2.341L4.063 6 .4 9.672A1.37 1.37 0 0 0 .41 11.6l.013.013a1.363 1.363 0 0 0 1.914 0l3.669-3.677L9.663 11.6A1.37 1.37 0 1 0 11.6 9.66" transform="translate(1151 203)" style="fill:#262626"/>
    </g>
</svg>
