<svg xmlns="http://www.w3.org/2000/svg" width="40" height="40" viewBox="0 0 40 40">
    <defs>
        <clipPath id="adxif6pysa">
            <path data-name="사각형 24" style="fill:#868686" d="M0 0h30.511v35.292H0z"/>
        </clipPath>
    </defs>
    <g data-name="icon_manu 01">
        <g data-name="그룹 4">
            <g data-name="그룹 3" transform="translate(5 2.111)" style="clip-path:url(#adxif6pysa)">
                <path data-name="패스 4" d="M30.511 10.616V8.549L28.72 7.515l-1.3.751-10.453-6.035v-1.2L15.177 0l-1.79 1.034v1.18L3 8.213l-1.207-.7L0 8.549v2.067l1.132.653v12.049L0 23.971v2.067l1.79 1.034 1.042-.6 10.554 6.094v1.694l1.79 1.033 1.79-1.033v-1.714l10.618-6.131 1.136.656 1.79-1.034v-2.066l-1.32-.761V11.377zM15.632 3.871l1.148-.663 10.15 5.86v.983l-4.267 2.464-7.031-4.059zm4.79 10.115a.314.314 0 0 1 .313.313v.117a.314.314 0 0 1-.313.313H10.088a.314.314 0 0 1-.313-.313V14.3a.314.314 0 0 1 .313-.313zm0 4.032H10.088a.314.314 0 0 1-.313-.313v-.118a.314.314 0 0 1 .313-.313h10.334a.314.314 0 0 1 .313.313v.113a.314.314 0 0 1-.313.313m.313 1.214v.117a.314.314 0 0 1-.313.313H10.088a.314.314 0 0 1-.313-.313v-.117a.314.314 0 0 1 .313-.313h10.334a.314.314 0 0 1 .313.313m-.313-2.858H10.088a.314.314 0 0 1-.313-.313v-.118a.314.314 0 0 1 .313-.313h10.334a.314.314 0 0 1 .313.313v.118a.314.314 0 0 1-.313.313M3.58 8.96l9.979-5.76 1.134.655v4.6l-7.033 4.06-4.08-2.356zM2.072 23.1V11.486l.964-.556 4.155 2.4v8.119l-3.99 2.3zm12.621 8.337-.688.4-10.425-6.02v-1.2l4.08-2.355 7.032 4.059zm-4.6-10.132a.314.314 0 0 1-.313-.313v-.117a.314.314 0 0 1 .313-.313h10.329a.314.314 0 0 1 .313.313v.117a.314.314 0 0 1-.313.313zm16.842 4.4-10.6 6.118-.7-.406v-5.1l7.031-4.059 4.267 2.464zm1.321-2.5-1.035.6-4.084-2.358v-8.118l4.248-2.453.87.5z" style="fill:#868686"/>
            </g>
        </g>
        <path data-name="사각형 100" style="fill:none;opacity:.612" d="M0 0h40v40H0z"/>
    </g>
</svg>
