<svg xmlns="http://www.w3.org/2000/svg" width="40" height="40" viewBox="0 0 40 40">
    <defs>
        <clipPath id="899hklln8a">
            <path data-name="사각형 25" style="fill:#868686" d="M0 0h31.003v23.743H0z"/>
        </clipPath>
    </defs>
    <g data-name="icon_manu 02">
        <g data-name="그룹 6">
            <g data-name="그룹 5" transform="translate(5 8.616)" style="clip-path:url(#899hklln8a)">
                <path data-name="패스 5" d="M29.63 0H1.374A1.376 1.376 0 0 0 0 1.373v21a1.375 1.375 0 0 0 1.374 1.373H29.63A1.375 1.375 0 0 0 31 22.369v-21A1.376 1.376 0 0 0 29.63 0m-1.166 3.585a.853.853 0 1 1-.853-.853.853.853 0 0 1 .853.853m-3.071 0a.853.853 0 1 1-.853-.853.853.853 0 0 1 .853.853m-3.071 0a.853.853 0 1 1-.853-.853.853.853 0 0 1 .853.853M8.869 22.565c0-.085-.013-.168-.013-.254a6.646 6.646 0 1 1 13.291 0c0 .086-.01.169-.013.254zm20.957-.2a.2.2 0 0 1-.2.2h-2.072a11.785 11.785 0 0 0-.054-1.355 3.714 3.714 0 0 1-2.963-2.562 3.6 3.6 0 0 1 .58-3.8 12.07 12.07 0 0 0-1.747-1.765 4.341 4.341 0 0 1-4.2.637 4.348 4.348 0 0 1-2.486-3.45 12.084 12.084 0 0 0-2.483-.015 3.6 3.6 0 0 1-2.308 3.07 3.715 3.715 0 0 1-3.9-.322 11.679 11.679 0 0 0-1.77 1.745 3.932 3.932 0 0 1 .75 3.951 4.354 4.354 0 0 1-3.455 2.483 12.2 12.2 0 0 0-.069 1.379H1.374a.2.2 0 0 1-.2-.2V6.234h28.652z" style="fill:#868686"/>
            </g>
        </g>
        <path data-name="사각형 101" style="fill:none;opacity:.612" d="M0 0h40v40H0z"/>
    </g>
</svg>
