<svg xmlns="http://www.w3.org/2000/svg" width="50" height="50" viewBox="0 0 50 50">
    <defs>
        <clipPath id="iygrh7kbma">
            <path data-name="사각형 88" style="fill:#fff" d="M0 0h26.957v34.745H0z"/>
        </clipPath>
    </defs>
    <g data-name="그룹 118">
        <g data-name="그룹 117" transform="translate(12 9)" style="clip-path:url(#iygrh7kbma)">
            <path data-name="패스 148" d="M13.319 18.987a5.668 5.668 0 1 0-5.668-5.669 5.675 5.675 0 0 0 5.668 5.669m0-8.692a3.023 3.023 0 1 1-3.019 3.023 3.026 3.026 0 0 1 3.019-3.018" transform="translate(-2.927 -2.927)" style="fill:#fff"/>
            <path data-name="패스 149" d="M23.7 19.359v4.2h-2.62v1.781l-8.982-.04v-2.53h2.758l.993-3.534a10.392 10.392 0 1 0-10.9 0l.993 3.534h2.749v5.972h12.384v1.808H23.7v4.2h3.262V19.359zM2.645 10.392a7.747 7.747 0 1 1 7.746 7.746 7.756 7.756 0 0 1-7.746-7.746" style="fill:#fff"/>
        </g>
    </g>
    <path data-name="사각형 98" style="fill:none;opacity:.501" d="M0 0h50v50H0z"/>
</svg>
