<svg xmlns="http://www.w3.org/2000/svg" width="50" height="50" viewBox="0 0 50 50">
    <defs>
        <clipPath id="rp5xt85h5a">
            <path data-name="사각형 35" style="fill:#fff" d="M0 0h34v31.765H0z"/>
        </clipPath>
    </defs>
    <g data-name="그룹 32">
        <g data-name="그룹 31" transform="translate(8 10)" style="clip-path:url(#rp5xt85h5a)">
            <path data-name="패스 16" d="M30.451 45.636h-18.14a1.349 1.349 0 0 0-1.349 1.349v1.526a1.349 1.349 0 0 0 1.349 1.349h18.14a1.349 1.349 0 0 0 1.349-1.349v-1.526a1.349 1.349 0 0 0-1.349-1.349" transform="translate(-4.347 -18.095)" style="fill:#fff"/>
            <path data-name="패스 17" d="M13.274 30.957h18.048V20.626c0-4.638-4.061-8.433-9.024-8.433s-9.024 3.795-9.024 8.433zm7.967-16.4a.843.843 0 0 1 .177 1.677c-.182.021-4.139.546-4.139 5.74a.843.843 0 1 1-1.687 0c0-6.754 5.591-7.411 5.648-7.417" transform="translate(-5.263 -4.835)" style="fill:#fff"/>
            <path data-name="패스 18" d="m4.31 29.407-3.687.3a.678.678 0 0 0 .112 1.352l3.687-.3a.678.678 0 1 0-.112-1.352" transform="translate(0 -11.66)" style="fill:#fff"/>
            <path data-name="패스 19" d="m5.954 18.331-3.4-1.459a.678.678 0 1 0-.535 1.246l3.4 1.46a.678.678 0 0 0 .535-1.247" transform="translate(-.638 -6.668)" style="fill:#fff"/>
            <path data-name="패스 20" d="M11.636 9.992a.678.678 0 0 0 1.057-.85l-2.318-2.883a.678.678 0 0 0-1.057.85z" transform="translate(-3.635 -2.382)" style="fill:#fff"/>
            <path data-name="패스 21" d="M21.62 4.439a.678.678 0 0 0 1.333-.255L22.257.55a.678.678 0 0 0-1.333.255z" transform="translate(-8.292)" style="fill:#fff"/>
            <path data-name="패스 22" d="M32.777 5.064a.68.68 0 0 0 .848-.449l1.088-3.536a.678.678 0 1 0-1.3-.4l-1.085 3.537a.681.681 0 0 0 .449.848" transform="translate(-12.807 -.08)" style="fill:#fff"/>
            <path data-name="패스 23" d="M42.476 10.336 45.1 7.722a.678.678 0 1 0-.958-.96l-2.624 2.613a.678.678 0 0 0 .958.96" transform="translate(-16.384 -2.603)" style="fill:#fff"/>
            <path data-name="패스 24" d="m47.9 20.007 3.538-1.08a.678.678 0 1 0-.4-1.3L47.5 18.71a.678.678 0 1 0 .4 1.3" transform="translate(-18.644 -6.979)" style="fill:#fff"/>
            <path data-name="패스 25" d="m52.512 30.286-3.632-.7a.678.678 0 1 0-.258 1.332l3.632.7a.678.678 0 0 0 .258-1.332" transform="translate(-19.061 -11.724)" style="fill:#fff"/>
        </g>
    </g>
    <path data-name="사각형 99" style="fill:none;opacity:.501" d="M0 0h50v50H0z"/>
</svg>
