<svg xmlns="http://www.w3.org/2000/svg" width="40" height="40" viewBox="0 0 40 40">
    <defs>
        <clipPath id="gsllzhrp2a">
            <path data-name="사각형 27" style="fill:#868686" d="M0 0h26.59v27.139H0z"/>
        </clipPath>
    </defs>
    <g data-name="icon_manu 04">
        <g data-name="그룹 10">
            <g data-name="그룹 9" transform="translate(7 6.99)" style="clip-path:url(#gsllzhrp2a)">
                <path data-name="패스 8" d="M24.534 3.29h-2.4v2.4a2.262 2.262 0 0 1-4.523 0v-2.4H8.977v2.4a2.261 2.261 0 0 1-4.522 0v-2.4h-2.4A2.056 2.056 0 0 0 0 5.345v19.737a2.056 2.056 0 0 0 2.056 2.057h22.478a2.056 2.056 0 0 0 2.056-2.057V5.345a2.056 2.056 0 0 0-2.056-2.055m-1.371 19.6H3.427V9.732h19.737zM7.046 11.993H4.715v2.331h2.331zm3.707 0h-2.33v2.331h2.33zm3.707 0h-2.33v2.331h2.33zm3.708 0h-2.33v2.331h2.33zm3.707 0h-2.331v2.331h2.329zM7.046 15.488H4.715v2.331h2.331zm3.707 0h-2.33v2.331h2.33zm3.707 0h-2.33v2.331h2.33zm3.708 0h-2.33v2.331h2.33zm3.707 0h-2.331v2.331h2.329zm-14.828 3.5H4.715v2.331h2.331zm3.707 0H8.423v2.331h2.33zm3.707 0H12.13v2.331h2.33zM6.716 6.717a1.031 1.031 0 0 0 1.027-1.028V1.028a1.028 1.028 0 0 0-2.056 0v4.66a1.033 1.033 0 0 0 1.029 1.029m13.158 0A1.031 1.031 0 0 0 20.9 5.689V1.028a1.028 1.028 0 1 0-2.056 0v4.661a1.032 1.032 0 0 0 1.028 1.028" style="fill:#868686"/>
            </g>
        </g>
        <path data-name="사각형 103" style="fill:none;opacity:.612" d="M0 0h40v40H0z"/>
    </g>
</svg>
