<svg xmlns="http://www.w3.org/2000/svg" width="40" height="40" viewBox="0 0 40 40">
    <defs>
        <clipPath id="5tcbtwyeva">
            <path data-name="사각형 23" style="fill:#868686" d="M0 0h26.929v28.866H0z"/>
        </clipPath>
    </defs>
    <g data-name="icon_manu 05">
        <g data-name="그룹 2">
            <g data-name="그룹 1" transform="translate(6 5.363)" style="clip-path:url(#5tcbtwyeva)">
                <path data-name="패스 1" d="M16.367 31.841a8.328 8.328 0 0 0 .01-1.69 2.528 2.528 0 0 1-2.017-1.744 2.45 2.45 0 0 1 .394-2.585 8.206 8.206 0 0 0-1.189-1.2 2.956 2.956 0 0 1-2.862.434 2.962 2.962 0 0 1-1.692-2.349 8.212 8.212 0 0 0-1.69-.01 2.45 2.45 0 0 1-1.571 2.09 2.529 2.529 0 0 1-2.654-.22 7.983 7.983 0 0 0-1.2 1.188 2.679 2.679 0 0 1 .51 2.69 2.966 2.966 0 0 1-2.353 1.69 8.251 8.251 0 0 0-.01 1.69 2.442 2.442 0 0 1 2.087 1.569 2.442 2.442 0 0 1-.4 2.585 8.345 8.345 0 0 0 1.189 1.2 2.963 2.963 0 0 1 2.862-.434 2.961 2.961 0 0 1 1.692 2.349 8.213 8.213 0 0 0 1.69.01 2.45 2.45 0 0 1 1.571-2.09 2.532 2.532 0 0 1 2.657.221 8.436 8.436 0 0 0 1.2-1.189 2.482 2.482 0 0 1 1.773-4.206m-8.156 3.584a4.524 4.524 0 1 1 4.524-4.524 4.524 4.524 0 0 1-4.524 4.524" transform="translate(0 -10.278)" style="fill:#868686"/>
                <path data-name="패스 2" d="M12.788 32.82a2.691 2.691 0 1 0 2.691 2.691 2.691 2.691 0 0 0-2.691-2.691" transform="translate(-4.58 -14.888)" style="fill:#868686"/>
                <path data-name="패스 3" d="M25.229 0h-12v10.544H14.9V1.665h9.157v8.879h7.214v13.873h-8.883v1.665h10.543V7.7zm.488 8.879V2.842l5.549 5.549v.488z" transform="translate(-6.002)" style="fill:#868686"/>
            </g>
        </g>
        <path data-name="사각형 104" style="fill:none;opacity:.612" d="M0 0h40v40H0z"/>
    </g>
</svg>
