<svg xmlns="http://www.w3.org/2000/svg" width="40" height="40" viewBox="0 0 40 40">
    <defs>
        <clipPath id="squup0f0ja">
            <path data-name="사각형 26" style="fill:#868686" d="M0 0h32.529v32.529H0z"/>
        </clipPath>
    </defs>
    <g data-name="icon_manu 03">
        <g data-name="그룹 8">
            <g data-name="그룹 7" transform="translate(4 3.737)" style="clip-path:url(#squup0f0ja)">
                <path data-name="패스 6" d="M32.529 16.948V13.8l-3.629-.639a12.931 12.931 0 0 0-.789-2.277l2.584-2.16-1.58-2.731-3.465 1.269a13.116 13.116 0 0 0-1.82-1.576l1.159-3.165L22.258.944l-2.365 2.829a12.95 12.95 0 0 0-2.366-.453L16.948 0h-3.153l-.633 3.633a12.863 12.863 0 0 0-2.277.788l-2.16-2.584-2.732 1.577 1.269 3.465A13.075 13.075 0 0 0 5.686 8.7L2.521 7.54.944 10.271l2.829 2.364A12.96 12.96 0 0 0 3.32 15L0 15.58v3.154l3.633.633a12.886 12.886 0 0 0 .788 2.277L1.837 23.8l1.577 2.731 3.465-1.268a13.035 13.035 0 0 0 1.821 1.58l-1.16 3.165 2.731 1.577 2.364-2.828a13.011 13.011 0 0 0 2.365.452l.579 3.32h3.154l.633-3.632a12.985 12.985 0 0 0 2.277-.788l2.16 2.583 2.731-1.577-1.267-3.465a13.065 13.065 0 0 0 1.576-1.819l3.165 1.158 1.577-2.731-2.829-2.364a12.953 12.953 0 0 0 .453-2.366zM16.264 27.207a10.943 10.943 0 1 1 10.943-10.943 10.943 10.943 0 0 1-10.943 10.943" style="fill:#868686"/>
                <path data-name="패스 7" d="M20.4 10.594a9.807 9.807 0 1 0 9.808 9.806 9.818 9.818 0 0 0-9.808-9.806m0 16.948a7.091 7.091 0 0 1-3.333-.831l.777-.777.666-.666a4.306 4.306 0 0 1 2.534-1.112l-.02-.012a4.269 4.269 0 0 0 4.4-5.584L22.7 21.282a1.153 1.153 0 0 1-1.626 0l-1.1-1.1a1.154 1.154 0 0 1 0-1.626l2.723-2.722a4.268 4.268 0 0 0-5.584 4.4l-.012-.02a4.308 4.308 0 0 1-1.112 2.534l-.666.666-.892.892a7.136 7.136 0 1 1 5.969 3.236" transform="translate(-4.137 -4.137)" style="fill:#868686"/>
            </g>
        </g>
        <path data-name="사각형 102" style="fill:none;opacity:.612" d="M0 0h40v40H0z"/>
    </g>
</svg>
